<?xml version="1.0" encoding="utf-8"?>
<!-- Generator: Adobe Illustrator 27.0.0, SVG Export Plug-In . SVG Version: 6.00 Build 0)  -->
<svg version="1.1" id="Laag_1" xmlns="http://www.w3.org/2000/svg" xmlns:xlink="http://www.w3.org/1999/xlink" x="0px" y="0px"
	 viewBox="0 0 595.3 841.9" style="enable-background:new 0 0 595.3 841.9;" xml:space="preserve">
<style type="text/css">
	.st0{fill:none;stroke:#056365;stroke-width:14.9996;stroke-miterlimit:9.9997;}
	.st1{fill:none;stroke:#056365;stroke-width:15;stroke-miterlimit:10;}
	.st2{fill:#056365;}
</style>
<path class="st0" d="M114.8,242.5c44.7-37.5,140.6,19.1,203.9,94.5s78.3,167,33.6,204.5c-44.7,37.5-133.7,14.3-197-61.1
	S70.1,280,114.8,242.5z"/>
<path class="st1" d="M507.3,250.2c-25.1-21.1-58.4-7.3-98.6,10.4c4.8,37.6,9.4,73.4,9.4,117.5c0,87.1-37.1,159.7-86.1,175.2
	c42.2-6.3,95.1-30.9,134.8-78.2C526.3,395.2,546.7,285.8,507.3,250.2z"/>
<path class="st1" d="M313.6,51.6c-33.2,0-82.2,99.7-82.2,208.1c30,14.2,60.6,45.6,87,77.1c63.3,75.4,78.3,167,33.6,204.5
	c-12.7,10.7-28.9,15.8-47,16c2.8,0.4,5.7,0.6,8.5,0.6c58.4,0,105.7-79.8,105.7-178.2C413.8,217.8,372,51.6,313.6,51.6z"/>
<g>
	<g>
		<path class="st2" d="M122.8,519.2c-7.8,4.3-11.7,6.5-19.5,10.8c-3.2-4.2-4.8-6.3-7.9-10.7c-10.8,5.2-21.5,10.4-32.2,15.6
			c-6.1-8.7-9-13.3-14.4-22.8c11.4-4.2,22.8-8.4,34.1-12.6c-2.8-4.8-4.1-7.2-6.6-12.3c8.8-2.7,13.2-4,22.1-6.7
			C105.7,494.1,113.6,506.7,122.8,519.2z"/>
		<path class="st2" d="M123.8,579.8c-4.4,2.9-9.4,3.8-15.2,2.4c-5.7-1.4-11.5-4.9-17-10.6c-5.5-5.7-8.5-11.4-9.1-16.7
			c-0.6-5.2,1.2-9.5,5.2-12.7c1.1-0.9,2.6-1.9,4.6-3.2c2-1.3,4.2-2.6,6.6-3.9c2.3-1.3,4.5-2.5,6.5-3.5c2.1-1,3.7-1.8,4.9-2.3
			c5.2-2.1,10.4-2.3,15.6-0.9c5.1,1.4,9.7,4.4,13.9,8.8c4.3,4.5,6.7,8.7,7.2,13.2c0.6,4.5-0.8,8.6-4.1,12.5c-0.8,1-2,2.2-3.6,3.7
			c-1.6,1.5-3.3,3.2-5.3,4.9c-2.1,1.8-4,3.5-5.8,4.9C126.5,577.9,125,579,123.8,579.8z M109.2,561.4c6.2-4.5,9.4-6.8,15.6-11.4
			c1.1-0.8,1.2-1.6,0.4-2.4c-0.8-0.8-1.8-0.9-2.8-0.1c-6.3,4.5-9.5,6.7-15.8,11.1c-1.1,0.8-1.2,1.6-0.3,2.6S108.2,562.1,109.2,561.4
			z"/>
		<path class="st2" d="M168.1,611c-3.6,3.7-8.1,5.5-13.8,5.3c-5.7-0.2-11.8-2.4-18.1-6.7c-6.3-4.4-10.3-9.2-11.9-14.1
			c-1.6-4.9-0.8-9.3,2.3-13.2c0.9-1,2.1-2.4,3.7-4c1.6-1.6,3.4-3.3,5.4-5.1c1.9-1.7,3.7-3.3,5.4-4.7c1.7-1.4,3.1-2.5,4.2-3.2
			c4.5-3.1,9.3-4.4,14.4-4.1s9.9,2.2,14.8,5.6c4.9,3.4,8,7.1,9.5,11.3s1.1,8.5-1.3,12.9c-0.6,1.1-1.4,2.5-2.6,4.3
			c-1.2,1.8-2.5,3.7-4,5.8c-1.6,2.2-3.1,4.2-4.4,5.9C170.2,608.7,169,610,168.1,611z M150.6,596.3c4.9-5.6,7.4-8.5,12.4-14.1
			c0.9-1,0.8-1.8-0.1-2.4c-0.9-0.7-1.8-0.5-2.7,0.5c-5.1,5.6-7.6,8.3-12.6,13.9c-0.9,1-0.8,1.8,0.2,2.5
			C148.8,597.4,149.8,597.2,150.6,596.3z"/>
		<path class="st2" d="M242,615.3c-0.3,0.8-0.4,1.2-0.7,2c-7.8-1.1-11.8-1.8-19.6-3.5c0.2-0.5,0.3-0.7,0.5-1.1
			c0.7-1.5,0.3-2.5-1.1-3s-2.4,0-3.1,1.5c-2.9,6.2-4.3,9.3-7.2,15.5c-0.7,1.5-0.3,2.5,1.2,3.1c1.5,0.5,2.6,0.1,3.3-1.5
			c0.4-0.8,0.5-1.2,0.9-2c-0.9-0.3-1.4-0.5-2.3-0.8c2-4.3,2.9-6.5,4.9-10.8c8.4,3,12.6,4.3,21.2,6.6c-2.2,6.5-3.3,9.7-5.4,16.1
			c-1.6,4.8-5,8-10.3,9.4c-5.3,1.4-12.1,0.8-19.8-2c-7.2-2.6-12.3-6.3-15.2-10.7c-2.9-4.4-3.3-9-1.4-13.7c0.5-1.2,1.2-2.7,2.2-4.6
			c1-1.9,2.1-3.9,3.4-6.1c1.2-2.1,2.4-4,3.6-5.7s2.1-3,2.9-4c3.3-4.1,7.4-6.6,12.2-7.5s9.9-0.4,15.5,1.6c5.9,2.2,10.1,4.9,12.6,8.5
			C242.7,606.4,243.4,610.6,242,615.3z"/>
		<path class="st2" d="M285.5,647c-1.2,4.7-4.2,8.2-9,10.4c-4.9,2.2-11.1,2.8-18.4,1.6c-7.4-1.2-12.9-3.8-16.6-7.4
			c-3.6-3.6-5-7.8-4.3-12.6c0.2-1.3,0.6-3,1.2-5.1c0.6-2.1,1.2-4.3,2-6.8c0.8-2.3,1.5-4.5,2.2-6.4c0.8-2,1.4-3.5,1.9-4.6
			c2.2-4.6,5.6-7.8,9.9-9.7c4.3-1.9,9.2-2.3,14.9-1.3c5.7,1,10.1,2.9,13.4,6c3.3,3.1,5,7.1,5.2,12c0,1.2,0,2.8-0.1,4.9
			s-0.3,4.3-0.5,6.8c-0.3,2.6-0.5,4.9-0.9,7C286.2,644.1,285.9,645.8,285.5,647z M263.7,641.2c1.4-7,2.1-10.6,3.5-17.6
			c0.2-1.2-0.2-1.9-1.3-2.1s-1.8,0.3-2,1.5c-1.5,7-2.3,10.5-3.8,17.5c-0.3,1.2,0.2,1.9,1.4,2.1S263.4,642.4,263.7,641.2z"/>
		<path class="st2" d="M338.1,646.5c-0.1,4.8-2.2,8.8-6.5,11.8s-10.2,4.7-17.6,4.8c-7.4,0.1-13.4-1.4-17.8-4.3
			c-4.3-2.9-6.6-6.8-7-11.5c-0.1-1.3-0.1-3,0-5.2c0.1-2.2,0.2-4.5,0.5-7c0.2-2.4,0.5-4.6,0.8-6.7c0.3-2.1,0.6-3.7,0.8-4.8
			c1.1-4.9,3.6-8.7,7.5-11.3c3.8-2.6,8.5-3.9,14.2-4c5.8-0.1,10.5,1,14.4,3.5c3.9,2.5,6.5,6,7.8,10.8c0.3,1.2,0.6,2.8,1,4.8
			c0.4,2,0.7,4.3,1,6.7c0.3,2.6,0.6,4.9,0.7,7.1C338,643.5,338.1,645.3,338.1,646.5z M315.4,644.8c-0.2-7.2-0.3-10.7-0.5-17.9
			c0-1.2-0.6-1.8-1.7-1.8s-1.6,0.6-1.6,1.9c0.1,7.2,0.1,10.7,0.2,17.9c0,1.2,0.6,1.8,1.9,1.8S315.4,646,315.4,644.8z"/>
		<path class="st2" d="M336.2,608.1c6.9-0.8,10.4-1.3,17.2-2.6c4.4-0.8,8-1.2,11.1-1c3.1,0.2,5.7,0.8,7.9,2s4.1,2.7,5.7,4.7
			c1.6,2,3,4.3,4.2,7c1.2,2.7,2.4,5.6,3.5,8.8c0.8,2.4,1.6,4.8,2.2,7.2c0.7,2.3,0.9,4.6,0.8,6.8s-0.9,4.3-2.4,6.3s-3.9,3.9-7.3,5.5
			s-8.1,3.1-13.9,4.2c-8.6,1.6-13,2.2-21.7,3.2C341.1,642.9,338.6,625.5,336.2,608.1z M365.8,637.7c-1.5-5.8-2.2-8.6-3.7-14.4
			c0-0.2-0.2-0.5-0.5-1c-0.3-0.5-0.8-0.6-1.6-0.5c-0.8,0.2-1.2,0.5-1.2,1s0,0.9,0,1.1c1.4,5.8,2.1,8.7,3.4,14.4c0,0.1,0.2,0.5,0.5,1
			s0.9,0.7,1.8,0.5c0.9-0.2,1.3-0.5,1.4-1.1C365.8,638.1,365.8,637.8,365.8,637.7z"/>
		<path class="st2" d="M441,600.7c2.1,0.3,4.1,1,6.2,2.3c2,1.2,4,3.1,5.9,5.6c2.4,3.1,3.5,6,3.5,8.6c0,2.6-0.9,5-2.7,7
			s-4,3.7-6.7,5.1c-10.4,5.3-21.1,10-32.1,14c-7.5-16.2-15.1-32.3-22.6-48.5c9.3-3.5,13.9-5.4,22.9-9.9c2.2-1.1,4.6-1.8,7.2-1.9
			c2.6-0.2,5.1,0.3,7.7,1.4s5,3.1,7.1,5.9c1.6,2.1,2.6,4,3.2,5.7C441.1,597.8,441.3,599.3,441,600.7z M421.7,601.5
			c-1.7,0.8-2.5,1.2-4.2,2c0.8,1.3,1.1,2,1.9,3.3c1.8-0.8,2.7-1.2,4.5-2.1c0.3-0.2,0.6-0.4,0.8-0.8c0.2-0.4,0.2-0.9-0.2-1.5
			c-0.4-0.7-0.9-1-1.5-1C422.4,601.3,422,601.4,421.7,601.5z M426.7,619.4c2.6-1.2,3.9-1.8,6.4-3c0.3-0.2,0.6-0.4,0.9-0.8
			s0.2-0.9-0.2-1.5c-0.4-0.7-0.9-1-1.5-1c-0.6,0-1.1,0.1-1.4,0.2c-2.4,1.2-3.6,1.7-6,2.8C425.6,617.5,425.9,618.1,426.7,619.4z"/>
		<path class="st2" d="M446.8,566.1c7.5,8.2,15,16.4,22.5,24.5c6.8-4.8,10.1-7.4,16.6-12.8c6.5,6,9.8,9,16.4,15
			c-12.1,9.7-24.5,18.5-37.6,26.8c-11.1-14.5-22.1-29-33.2-43.4C437.7,572.4,440.8,570.4,446.8,566.1z"/>
		<path class="st2" d="M529.5,543.2c4,3.2,5.9,7.5,5.2,12.8c-0.6,5.3-3.7,11-9.2,16.7s-11.3,9.1-17,10.5c-5.7,1.3-10.7,0.5-15.1-2.4
			c-1.1-0.8-2.6-1.9-4.4-3.4c-1.8-1.5-3.7-3.1-5.7-4.9c-1.9-1.7-3.6-3.3-5.2-4.9c-1.6-1.5-2.7-2.8-3.5-3.7c-3.4-4-4.8-8.3-4.2-12.8
			c0.6-4.5,3-8.8,7.2-13.1c4.3-4.4,8.8-7.4,13.9-8.8s10.2-1.2,15.3,0.9c1.2,0.5,2.9,1.3,4.9,2.3c2,1,4.2,2.2,6.6,3.6
			c2.5,1.4,4.7,2.8,6.6,4C526.9,541.3,528.4,542.4,529.5,543.2z M510.7,559.6c-6.3-4.5-9.5-6.7-15.8-11.2c-1.1-0.8-2-0.7-2.8,0.1
			c-0.8,0.8-0.7,1.7,0.4,2.4c6.2,4.6,9.3,6.9,15.5,11.4c1.1,0.8,2.1,0.7,3-0.2S511.8,560.4,510.7,559.6z"/>
		<path class="st2" d="M535.7,485.3c0.9,0.3,1.3,0.4,2.2,0.7c-3,8.3-4.7,12.4-8.3,20.3c-0.5-0.2-0.8-0.3-1.3-0.5
			c-1.7-0.7-3-0.3-3.9,1.1s-0.5,2.5,1.2,3.2c6.9,3,10.3,4.5,17.2,7.5c1.7,0.7,3,0.3,4-1.2c1-1.5,0.6-2.7-1.1-3.4
			c-0.9-0.4-1.3-0.5-2.2-0.9c-0.6,0.9-0.8,1.4-1.4,2.3c-4.8-2-7.2-3-12-5c5.3-8.4,7.8-12.8,12.4-21.9c7.3,2.2,11,3.4,18.3,5.6
			c5.5,1.7,8.6,5.2,9.2,10.8c0.6,5.6-1.5,12.5-6.5,20.3c-4.5,7.2-9.9,12.1-15.6,14.8c-5.8,2.7-11.3,2.9-16.5,0.9
			c-1.3-0.5-3-1.3-5.1-2.3s-4.3-2.2-6.7-3.5c-2.3-1.3-4.3-2.5-6.1-3.6c-1.8-1.1-3.3-2.1-4.3-2.9c-4.3-3.3-6.6-7.3-6.8-12
			s1.3-9.7,4.9-15.3c3.8-5.9,7.9-10.2,12.9-12.9C525.2,484.6,530.3,483.8,535.7,485.3z"/>
	</g>
</g>
<ellipse class="st1" cx="309.5" cy="303.2" rx="218.7" ry="254.7"/>
<path class="st1" d="M362.8,533.8c-23.5-19.8-48-42.1-72.6-67.2c-48.5-49.4-87.1-98.5-117.5-143"/>
<path class="st1" d="M316.4,329.8c5.3-27.5,9.5-60.6,10-98.1c0.5-32.5-1.9-61.7-5.4-86.5"/>
<path class="st1" d="M419,392.4c17.8-26.5,35.7-53,53.5-79.6"/>
</svg>
